<svg width="160" height="37" viewBox="0 0 160 37" fill="none" xmlns="http://www.w3.org/2000/svg">
<path d="M132.197 2.48041C135.038 0.826803 138.133 0 141.481 0C144.83 0 147.925 0.826803 150.766 2.48041C153.641 4.13401 155.89 6.37819 157.514 9.21295C159.171 12.0477 160 15.1356 160 18.4765C160 21.8175 159.171 24.9222 157.514 27.7907C155.89 30.6255 153.641 32.8696 150.766 34.5232C147.925 36.1431 144.83 36.953 141.481 36.953C138.133 36.953 135.038 36.1431 132.197 34.5232C129.356 32.8696 127.106 30.6255 125.449 27.7907C123.792 24.9222 122.963 21.8175 122.963 18.4765C122.963 15.1356 123.792 12.0477 125.449 9.21295C127.106 6.37819 129.356 4.13401 132.197 2.48041ZM135.596 24.3485C137.22 25.9684 139.181 26.7783 141.481 26.7783C143.781 26.7783 145.743 25.9684 147.367 24.3485C148.99 22.7286 149.802 20.7713 149.802 18.4765C149.802 16.1817 148.99 14.2244 147.367 12.6045C145.743 10.9847 143.781 10.1747 141.481 10.1747C139.181 10.1747 137.22 10.9847 135.596 12.6045C133.973 14.2244 133.161 16.1817 133.161 18.4765C133.161 20.7713 133.973 22.7286 135.596 24.3485Z" fill="white"/>
<path d="M9.2339 2.48041C12.0751 0.826803 15.17 0 18.5185 0C21.8671 0 24.962 0.826803 27.8032 2.48041C30.6782 4.13401 32.9275 6.37819 34.551 9.21294C36.2084 12.0477 37.0371 15.1356 37.0371 18.4765C37.0371 21.8175 36.2084 24.9222 34.551 27.7907C32.9275 30.6255 30.6782 32.8696 27.8032 34.5232C24.962 36.1431 21.8671 36.953 18.5185 36.953C15.17 36.953 12.0751 36.1431 9.2339 34.5232C6.3927 32.8696 4.14342 30.6255 2.48605 27.7907C0.828684 24.9222 0 21.8175 0 18.4765C0 15.1356 0.828684 12.0477 2.48605 9.21294C4.14342 6.37819 6.3927 4.13401 9.2339 2.48041ZM12.6332 24.3485C14.2567 25.9684 16.2185 26.7783 18.5185 26.7783C20.8186 26.7783 22.7803 25.9684 24.4039 24.3485C26.0274 22.7286 26.8392 20.7713 26.8392 18.4765C26.8392 16.1817 26.0274 14.2244 24.4039 12.6045C22.7803 10.9847 20.8186 10.1747 18.5185 10.1747C16.2185 10.1747 14.2567 10.9847 12.6332 12.6045C11.0097 14.2244 10.1979 16.1817 10.1979 18.4765C10.1979 20.7713 11.0097 22.7286 12.6332 24.3485Z" fill="white"/>
<path d="M105.902 36.1924H95.6533L94.5371 31.5859H83.9336L82.7666 36.1924H72.5684L82.2598 0.808594H96.2119L105.902 36.1924ZM86.2168 22.627H92.2539L89.21 10.5283L86.2168 22.627Z" fill="white"/>
<path d="M47.5669 36.1943H33.479V0.601562H47.5669V36.1943ZM58.5278 0.703125C63.0182 0.703205 66.8314 1.85775 69.9653 4.16602C73.1458 6.44032 74.7358 9.19036 74.7358 12.415C74.7358 14.7231 73.8941 16.8277 72.2104 18.7285C70.5266 20.6294 68.2805 22.0722 65.4741 23.0566L78.6655 36.1943H61.1948L50.1704 25.2168V15.2158H56.353C57.3819 15.2157 58.2707 14.9434 59.019 14.4004C59.7672 13.8573 60.1421 13.2125 60.1421 12.4658C60.1421 11.6852 59.7673 11.0226 59.019 10.4795C58.2708 9.9366 57.3817 9.66514 56.353 9.66504H50.1704V0.703125H58.5278Z" fill="white"/>
<path d="M105.216 0.294574C112.415 -0.105657 115.237 -0.090654 122.751 0.294574C123.048 3.03179 123.018 4.56689 122.751 7.30417C121.449 7.37341 121.422 7.38024 120.12 7.30417C119.818 13.8054 119.056 17.6419 117.172 25.4572H114.176H111.064C108.856 18.1398 108.037 14.1462 107.651 7.30417C106.463 7.39469 106.404 7.40121 105.216 7.30417C104.81 4.22076 104.802 2.55241 105.216 0.294574Z" fill="#3048D2"/>
<path d="M111.289 28.2269C112.151 27.8061 113.09 27.5957 114.106 27.5957C115.122 27.5957 116.061 27.8061 116.923 28.2269C117.795 28.6477 118.478 29.2188 118.97 29.9401C119.473 30.6615 119.724 31.4473 119.724 32.2975C119.724 33.1477 119.473 33.9377 118.97 34.6677C118.478 35.389 117.795 35.9601 116.923 36.3809C116.061 36.7931 115.122 36.9992 114.106 36.9992C113.09 36.9992 112.151 36.7931 111.289 36.3809C110.426 35.9601 109.744 35.389 109.241 34.6677C108.738 33.9377 108.487 33.1477 108.487 32.2975C108.487 31.4473 108.738 30.6615 109.241 29.9401C109.744 29.2188 110.426 28.6477 111.289 28.2269ZM112.32 33.7917C112.813 34.2039 113.408 34.41 114.106 34.41C114.803 34.41 115.399 34.2039 115.891 33.7917C116.384 33.3795 116.63 32.8814 116.63 32.2975C116.63 31.7135 116.384 31.2154 115.891 30.8032C115.399 30.391 114.803 30.1849 114.106 30.1849C113.408 30.1849 112.813 30.391 112.32 30.8032C111.827 31.2154 111.581 31.7135 111.581 32.2975C111.581 32.8814 111.827 33.3795 112.32 33.7917Z" fill="#3048D2"/>
<ellipse cx="113.983" cy="32.4094" rx="3.14065" ry="2.46015" fill="#3048D2"/>
</svg>
