<svg width="109" height="109" viewBox="0 0 109 109" fill="none" xmlns="http://www.w3.org/2000/svg">
<circle cx="54.1587" cy="54.1587" r="54.1587" fill="#3B3B3B"/>
<path fill-rule="evenodd" clip-rule="evenodd" d="M40.3947 38.013C40.3947 34.5365 41.7757 31.2025 44.234 28.7443C46.6922 26.286 50.0262 24.905 53.5027 24.905C56.9791 24.905 60.3132 26.286 62.7714 28.7443C65.2296 31.2025 66.6107 34.5365 66.6107 38.013C66.6107 41.4894 65.2296 44.8235 62.7714 47.2817C60.3132 49.74 56.9791 51.121 53.5027 51.121C50.0262 51.121 46.6922 49.74 44.234 47.2817C41.7757 44.8235 40.3947 41.4894 40.3947 38.013ZM40.3947 57.6749C36.0492 57.6749 31.8816 59.4012 28.8088 62.474C25.736 65.5468 24.0098 69.7143 24.0098 74.0599C24.0098 76.6672 25.0455 79.1678 26.8892 81.0115C28.7329 82.8551 31.2334 83.8909 33.8407 83.8909H73.1646C75.772 83.8909 78.2725 82.8551 80.1162 81.0115C81.9599 79.1678 82.9956 76.6672 82.9956 74.0599C82.9956 69.7143 81.2694 65.5468 78.1966 62.474C75.1238 59.4012 70.9562 57.6749 66.6107 57.6749H40.3947Z" fill="black"/>
</svg>
